<svg xmlns="http://www.w3.org/2000/svg" version="1.1" xmlns:xlink="http://www.w3.org/1999/xlink" width="512" height="512" x="0" y="0" viewBox="0 0 32 32" style="enable-background:new 0 0 512 512" xml:space="preserve" fill-rule="evenodd" class=""><g><path d="m18.574 3.35.707 2.336c.97.308 1.892.752 2.737 1.318l2.267-.904a.5.5 0 0 1 .519.093 13.182 13.182 0 0 1 2.716 3.406.499.499 0 0 1-.025.527l-1.385 2.008c.363.951.591 1.948.676 2.962l2.119 1.209a.5.5 0 0 1 .252.463 13.161 13.161 0 0 1-.97 4.248.5.5 0 0 1-.427.309l-2.434.169a10.84 10.84 0 0 1-1.894 2.375l.376 2.411a.5.5 0 0 1-.206.486 13.187 13.187 0 0 1-3.925 1.89.5.5 0 0 1-.508-.142l-1.65-1.797a10.886 10.886 0 0 1-3.038 0l-1.65 1.797a.5.5 0 0 1-.508.142 13.187 13.187 0 0 1-3.925-1.89.5.5 0 0 1-.206-.486l.377-2.411a10.815 10.815 0 0 1-1.895-2.375l-2.434-.169a.5.5 0 0 1-.427-.309 13.161 13.161 0 0 1-.97-4.248.5.5 0 0 1 .252-.463l2.119-1.209c.085-1.014.313-2.011.676-2.961l-1.385-2.009a.499.499 0 0 1-.025-.527 13.182 13.182 0 0 1 2.716-3.406.5.5 0 0 1 .519-.093l2.266.904a10.806 10.806 0 0 1 2.738-1.318l.707-2.336a.498.498 0 0 1 .396-.348 13.159 13.159 0 0 1 4.356 0 .498.498 0 0 1 .396.348zm-.866.591a12.215 12.215 0 0 0-3.416 0l-.694 2.29a.498.498 0 0 1-.339.335 9.856 9.856 0 0 0-2.926 1.409.497.497 0 0 1-.473.056l-2.223-.885a12.182 12.182 0 0 0-2.13 2.671l1.358 1.97a.501.501 0 0 1 .051.474 9.833 9.833 0 0 0-.723 3.166.498.498 0 0 1-.251.405l-2.079 1.186c.096 1.14.352 2.262.761 3.331l2.386.166a.5.5 0 0 1 .403.256 9.792 9.792 0 0 0 2.025 2.539.502.502 0 0 1 .16.449l-.369 2.365a12.174 12.174 0 0 0 3.078 1.482l1.618-1.762a.5.5 0 0 1 .451-.155c1.075.18 2.173.18 3.248 0a.5.5 0 0 1 .451.155l1.618 1.762a12.144 12.144 0 0 0 3.078-1.483l-.369-2.364a.502.502 0 0 1 .16-.449 9.792 9.792 0 0 0 2.025-2.539.5.5 0 0 1 .403-.256l2.386-.166c.409-1.069.665-2.19.761-3.331l-2.079-1.186a.498.498 0 0 1-.251-.405 9.833 9.833 0 0 0-.723-3.166.501.501 0 0 1 .051-.474l1.358-1.97a12.182 12.182 0 0 0-2.13-2.671l-2.223.885a.497.497 0 0 1-.473-.056 9.856 9.856 0 0 0-2.926-1.409.498.498 0 0 1-.339-.335l-.694-2.29zM16 7.592c4.64 0 8.408 3.768 8.408 8.408S20.64 24.408 16 24.408 7.592 20.64 7.592 16 11.36 7.592 16 7.592zm0 1c-4.088 0-7.408 3.32-7.408 7.408s3.32 7.408 7.408 7.408 7.408-3.32 7.408-7.408S20.088 8.592 16 8.592zm-.515 11.529a.5.5 0 0 1-.97-.242l2-8a.5.5 0 0 1 .97.242zm-1.62-1.263a.5.5 0 0 1-.73.684l-3-3.2a.5.5 0 0 1 0-.684l3-3.2a.5.5 0 0 1 .73.684L11.185 16zm5 .684a.5.5 0 0 1-.73-.684L20.815 16l-2.68-2.858a.5.5 0 0 1 .73-.684l3 3.2a.5.5 0 0 1 0 .684z" fill="#ffbc5e" opacity="1" data-original="#000000" class=""></path></g></svg>